<svg width="24" height="24" viewBox="0 0 24 24" fill="none" xmlns="http://www.w3.org/2000/svg">
<path d="M24.0002 12C24.0002 5.36774 18.6332 0 12.0002 0C5.36798 0 0.000244141 5.367 0.000244141 12C0.000244141 18.5735 5.32239 24 12.0002 24C18.6506 24 24.0002 18.6037 24.0002 12ZM12.0002 1.40625C17.8417 1.40625 22.594 6.15857 22.594 12C22.594 14.1368 21.9584 16.1907 20.7798 17.9304C16.0469 12.8394 7.96222 12.8302 3.2207 17.9304C2.04205 16.1907 1.40649 14.1368 1.40649 12C1.40649 6.15857 6.15881 1.40625 12.0002 1.40625ZM4.09778 19.0547C8.30591 14.3346 15.6957 14.3357 19.9025 19.0547C15.6803 23.7784 8.32184 23.7799 4.09778 19.0547Z" fill="white"/>
</svg>
