<svg width="38" height="32" viewBox="0 0 38 32" fill="none" xmlns="http://www.w3.org/2000/svg">
<path fill-rule="evenodd" clip-rule="evenodd" d="M18.4663 0C8.0782 0 0 8.40864 0 18.6302C0 22.9182 1.48405 27.2051 4.28666 30.5026L5.44 31.8201L7.5836 29.6789L6.75991 28.5229C4.45189 25.7189 3.29694 22.2573 3.29694 18.6302C3.29694 10.0558 10.2231 3.13091 18.7962 3.13091C27.369 3.13091 34.2955 10.0558 34.2955 18.6302C34.2955 22.257 32.975 25.7189 30.8301 28.5231L30.0088 29.6789L32.1519 31.8201L33.3057 30.5026C35.6138 27.0404 37.0965 22.9182 37.0965 18.6302C37.0965 8.40837 28.8544 0 18.4663 0ZM25.2259 10.387L14.8394 18.6302L18.4663 22.2568L26.7097 11.87L25.2259 10.387Z" fill="white"/>
</svg>
